<?xml version="1.0" encoding="UTF-8"?>
<!-- Generator: Adobe Illustrator 26.0.0, SVG Export Plug-In . SVG Version: 6.00 Build 0)  -->
<svg xmlns="http://www.w3.org/2000/svg" xmlns:xlink="http://www.w3.org/1999/xlink" version="1.1" id="Capa_1" x="0px" y="0px" width="276px" height="60px" viewBox="0 0 276 60" xml:space="preserve">
<g>
	<g>
		<path fill="#38869D" d="M7.2,29v-2.4c0.5-16.3,13.3-27,29.1-26c0.2,0,0.4,0.1,0.5,0.3l4.4,4.9c0.2,0.2,0.2,0.4-0.1,0.5    c-1,0.2-2,0.4-2.9,0.4c-15.6,1.5-25,9.8-28.1,25.1c-0.5,2.7-0.9,5.1-1.1,7.3c-0.1,1.2-0.2,1.2-0.5,0C7.9,35.8,7.4,32.4,7.2,29z"></path>
		<path fill="#38869D" d="M39.6,0.7h4.2c0.1,0,0.1,0,0.2,0.1l4.8,5.1c0.1,0.1,0.1,0.3,0,0.4c0,0-0.1,0.1-0.2,0.1H44    c-0.1,0-0.2,0-0.2-0.1l-4.4-5.1c-0.1-0.1-0.1-0.3,0-0.4C39.4,0.7,39.5,0.7,39.6,0.7z"></path>
		<path fill="#054F91" d="M21.7,50.3c6.2,2.7,13.7-2.1,18.5-5.9c0.3-0.2,0.5-0.2,0.6,0.2l3,8.3c0.1,0.2,0,0.4-0.2,0.6    C35.3,60.5,22.1,63,15.4,52c-5.1-8.3-5.8-17.5-2.1-27.4C18,12.3,30.6,7.1,43.3,8c0.2,0,0.4,0.1,0.6,0.3l5.2,6.2    c0.3,0.3,0.2,0.4-0.2,0.4c-3.6,0-5.9,0-6.9,0.1c-14,0.7-26.9,10.8-26.6,25.5C15.6,45.3,17.6,48.5,21.7,50.3z"></path>
		<path fill="#054F91" d="M55.9,14.8l-4.8-0.2c-0.1,0-0.1,0-0.2-0.1l-5.3-6.2c-0.1-0.1-0.1-0.3,0-0.4c0,0,0.1-0.1,0.2-0.1H50    c0.1,0,0.1,0,0.2,0.1l5.9,6.4c0.1,0.1,0.1,0.3,0,0.4C56.1,14.8,56,14.8,55.9,14.8z"></path>
		<path fill="#38869D" d="M45.5,17.4c0.3-0.8,0.5-0.7,0.7,0c2.3,10-0.2,18.9-7.2,26.6c-5.4,5.9-19.8,10.1-21.4-2.3    c0-0.3,0.1-0.4,0.4-0.3C32.6,44.9,41.2,29,45.5,17.4z"></path>
	</g>
	<g>
		<path fill="#054F91" d="M160.6,18.8c-0.4-3.5-2.4-5.7-6.2-4.5c-6.8,2.2-10.7,10.2-11.2,16.8c-1,12.1,9.5,9.3,15.6,5    c0.3-0.2,0.4-0.1,0.4,0.2c-0.1,0.5-0.3,0.9-0.7,1.2c-6.7,4.7-21.9,8.6-18.7-6.5c1.9-9.2,7.2-15.4,15.9-18.5c4-1.5,6.9-0.4,8.5,3.3    c0.1,0.3,0.1,0.6-0.2,0.8l-2.8,2.4C160.8,19.2,160.6,19.1,160.6,18.8z"></path>
		<path fill="#054F91" d="M68,18.3c3.2-2.5,7.4-4.1,11.2-4.1c5.6,0,7.6,3.7,7.6,9c0,4.9-1.8,10.5-5.1,13.7    c-3.2,3.1-7.5,4.9-11.8,4.9c-5.4,0-8.1-3.3-8.1-9.7C62,27.4,63.9,21.5,68,18.3z M76.5,15.9c-6.5,0-10.6,7.4-10.6,15.2    c0,3.4,1,8.9,6.6,8.9C76.7,40,83,36.5,83,23.7C83,17.6,79.4,15.9,76.5,15.9z"></path>
		<path fill="#054F91" d="M88.5,41.7L91.9,29c0.3-1.1,0.4-2.1,0.4-2.6c0-0.8-0.3-1.1-0.7-1.1c-0.5,0-1,0.1-3.3,1.2l0.1-1.2l4.1-2.2    c2.2-1.1,2.7-1.3,3.2-1.3c0.1,0,0.4,0.2,0.4,0.4c0,0.3,0,0.5,0,0.7l-0.4,2.2l0.1,0.1l1.4-1.3c2.4-2.1,3.2-2.2,3.7-2.2    c0.3,0,1,0.1,1.6,0.3l-1.3,3.7c-0.8-0.3-1.8-0.4-2.4-0.4c-0.8,0-1.7,0.3-3.3,1.5l-3.7,13.7L88.5,41.7z"></path>
		<path fill="#054F91" d="M112.9,36.3c-0.1,0.3-0.1,0.6-0.1,0.8c0,0.4,0.1,0.7,0.6,0.7c0.2,0,0.4,0,0.9-0.3l3.4-1.5    c0,1-0.1,1.1-0.4,1.3l-6.2,3.9c-0.6,0.4-1,0.5-1.2,0.5c-0.1,0-0.2,0-0.3,0c-0.1-0.1-0.5-0.3-0.5-0.4c0-0.2,0-0.3,0-0.4    c0-0.4,0.1-1,0.2-1.8l0.3-2.2l-5.8,4c-0.7,0.5-1.2,0.7-1.6,0.7c-1.3,0-1.7-1.9-1.7-3.5c0-4.6,2.1-9.8,3.3-11.8    c0.5-1,4.7-4.1,6.5-4.5c0.5-0.1,1.1-0.1,1.5-0.1c0.6,0,1.3,0.1,1.9,0.2c0.9,0.1,2.4,0.5,3.6,0.8l-0.6,0.7    c-0.9,1.1-1.1,1.3-1.5,3.3L112.9,36.3z M112.6,24.5c-1.7-0.4-3.1-0.5-3.4-0.5c-0.5,0-1.2,0.2-1.6,0.5c-1.8,0.8-3.9,8.8-3.9,11.3    c0,1.1,0.4,2.2,1.1,2.2c0.7,0,3.1-1.5,5.2-3.3L112.6,24.5z"></path>
		<path fill="#054F91" d="M133.4,12.4c-1.1-0.2-2.1-0.3-2.9-0.3c-1,0-2.2,0.7-2.7,2.8l-4.4,15.5c-0.9,3.2-1.3,5.8-1.3,6.4    c0,0.4,0.2,1.3,0.8,1.3c0.3,0,0.7,0,1.7-0.5l3.4-1.6l-0.3,1.3l-6.7,4.1c-0.5,0.3-0.8,0.3-1.1,0.3c-1.4,0-1.5-2.3-1.5-2.8    c0-0.5,0-0.9,0.2-1.5l5.6-21.1c0.2-0.7,0.4-1.5,0.9-1.9c1.2-1.3,4.5-3.6,5.6-4.3c0.5-0.3,1.2-0.4,2.1-0.4c0.5,0,1,0,2.2,0.3    L133.4,12.4z"></path>
		<path fill="#054F91" d="M179.1,12.4c-1.1-0.2-2.1-0.3-2.9-0.3c-1,0-2.2,0.7-2.7,2.8l-4.4,15.5c-0.9,3.2-1.3,5.8-1.3,6.4    c0,0.4,0.2,1.3,0.8,1.3c0.3,0,0.7,0,1.7-0.5l3.4-1.6l-0.3,1.3l-6.7,4.1c-0.5,0.3-0.8,0.3-1.1,0.3c-1.4,0-1.5-2.3-1.5-2.8    c0-0.5,0-0.9,0.2-1.5l5.6-21.1c0.2-0.7,0.4-1.5,0.9-1.9c1.2-1.3,4.5-3.6,5.6-4.3c0.5-0.3,1.2-0.4,2.1-0.4c0.5,0,1,0,2.2,0.3    L179.1,12.4z"></path>
		<path fill="#054F91" d="M184.5,37.7c-6,3.4-7.4,4-8,4c-0.6,0-1.3-0.7-1.3-1.7c0-1.9,0.1-2.5,1.5-7c0.7-2.2,1.8-6,1.8-6.7    c0-0.4-0.3-0.7-0.6-0.7c-0.6,0-1.5,0.3-3.3,1.1l0.2-1.1c4.7-2.9,6.6-3.9,7.2-3.9c0.4,0,0.8,0.4,0.8,0.7c0,0.3-0.1,0.6-0.1,0.8    l-3.4,12.8c-0.1,0.4-0.2,0.7-0.2,1c0,0.6,0.3,1.1,1,1.1c0.4,0,0.9,0,4.6-1.7L184.5,37.7z M184.8,13c0,0.4,0.1,0.8,0.2,1.3    c0.3,1.1,0.7,1.9,0.8,2.2l-3.2,1.8c-0.9-0.8-1.3-2.1-1.5-3.4L184.8,13z"></path>
		<path fill="#054F91" d="M186.3,41.3l4-14.1c0.1-0.4,0.2-0.8,0.2-1.1c0-0.5-0.3-0.8-0.6-0.8c-0.3,0-1.7,0.5-3.4,1.3l0.1-1.2    l2.5-1.5c2.1-1.3,4-2.1,4.5-2.1c0.4,0,0.8,0.3,0.8,0.8c0,0.4-0.1,0.9-0.3,1.6l-0.8,2.6l6.4-3.7c2.1-1.2,2.5-1.3,2.9-1.3    c0.5,0,1.1,0.4,1.1,0.8c0,0.3,0,0.5-0.1,0.9l-3.1,11.9c-0.2,0.9-0.3,1.3-0.3,1.5c0,0.6,0.1,1.1,0.8,1.1c0.3,0,1.2-0.4,4.9-2.3    l-0.2,1.2l-1.6,1.1c-5.3,3.6-5.8,3.8-6.5,3.8c-0.5,0-1.1-0.7-1.1-1.3c0-0.4,0-0.8,0.1-1.1l3-12c0.1-0.6,0.2-1,0.2-1.3    c0-0.5-0.3-0.7-0.7-0.7c-1,0-6,3.2-6.1,3.5L189.6,40L186.3,41.3z"></path>
		<path fill="#054F91" d="M216.6,37.7c-6,3.4-7.4,4-8,4c-0.6,0-1.3-0.7-1.3-1.7c0-1.9,0.1-2.5,1.5-7c0.7-2.2,1.8-6,1.8-6.7    c0-0.4-0.3-0.7-0.6-0.7c-0.6,0-1.5,0.3-3.3,1.1l0.2-1.1c4.7-2.9,6.6-3.9,7.2-3.9c0.4,0,0.8,0.4,0.8,0.7c0,0.3-0.1,0.6-0.1,0.8    l-3.4,12.8c-0.1,0.4-0.2,0.7-0.2,1c0,0.6,0.3,1.1,1,1.1c0.4,0,0.9,0,4.6-1.7L216.6,37.7z M216.9,13c0,0.4,0.1,0.8,0.2,1.3    c0.3,1.1,0.7,1.9,0.8,2.2l-3.2,1.8c-0.9-0.8-1.3-2.1-1.5-3.4L216.9,13z"></path>
		<path fill="#054F91" d="M231.6,37.7c-1.3,0.6-2.8,1.5-4.2,2.2c-2.5,1.2-4.5,1.7-6,1.7c-2.9,0-3.7-1.6-3.7-4.7    c0-3.5,1.9-9.1,3.7-11.1c0.7-0.7,5.2-4.2,7.2-4.2c2,0,2.9,1.4,2.9,3.1c0,0.2,0,0.4,0,0.7l-3,1.7c-0.4-2.4-1-3-2.4-3    c-3.6,0-5.2,10.9-5.2,12c0,1.9,1.1,2.8,2.6,2.8c1.4,0,4.1-0.8,8.1-2.7L231.6,37.7z"></path>
		<g>
			<path fill="#38869D" d="M236.7,36.2c0.1-0.4,0.2-1,0.2-1.1c0-0.3-0.2-0.6-0.5-0.6c-0.2,0-0.4,0-0.6,0.2l-0.9,0.4l0.1-0.6l1.5-1     c1.3-0.8,1.8-1.1,2.1-1.1c0.2,0,0.4,0.2,0.5,0.4v0.1c0,0.1,0,0.3-0.2,1.1l-0.1,0.7l0.8-0.6c1.8-1.3,2.4-1.7,3.1-1.7     c1.1,0,1.3,1.3,1.3,2.1c0,1.4-0.8,5-1.9,6.2c-0.3,0.3-2.4,2-2.9,2.2c-0.3,0.1-0.7,0.1-1,0.1c-0.4,0-0.9,0-1.3-0.1l-1.5,6.6     l2.2,0.3l0,0.1l0,0l-0.6,0.5h-5.2c0,0-0.1-0.1-0.1-0.1c0.1-0.2,0.8-0.7,0.9-0.7c0.1-0.1,0.5-0.1,0.9-0.1L236.7,36.2z M237.3,40.4     c0,0.2,0,0.3,0,0.4c0,0.7,1.3,0.9,1.7,0.9c0.6,0,1.3-0.3,1.8-1.3c0.8-1.5,1.3-3.9,1.3-5c0-0.8-0.3-1.3-0.7-1.3     c-0.3,0-0.5,0.1-0.8,0.2c-0.8,0.4-1.8,1-2,1.4c-0.1,0.2-0.3,0.8-0.4,1.2L237.3,40.4z"></path>
			<path fill="#38869D" d="M253.2,27.2c-0.6-0.1-1.1-0.2-1.6-0.2c-0.6,0-1.2,0.4-1.5,1.5l-2.4,8.5c-0.5,1.7-0.7,3.2-0.7,3.5     c0,0.2,0.1,0.7,0.4,0.7c0.2,0,0.4,0,0.9-0.3l1.9-0.9l-0.1,0.7l-3.7,2.2c-0.3,0.2-0.4,0.2-0.6,0.2c-0.7,0-0.8-1.3-0.8-1.5     c0-0.3,0-0.5,0.1-0.8l3.1-11.6c0.1-0.4,0.2-0.8,0.5-1.1c0.7-0.7,2.4-2,3.1-2.3c0.3-0.1,0.7-0.2,1.1-0.2c0.3,0,0.6,0,1.2,0.1     L253.2,27.2z"></path>
			<path fill="#38869D" d="M259.9,32.3l-1.4,5c-0.4,1.4-0.7,2.8-0.7,3.5c0,0.3,0,0.5,0.3,0.5c0.1,0,0.4-0.1,0.9-0.3l1.7-0.9v0.7     l-4,2.3c-0.2,0.1-0.4,0.2-0.5,0.2c-0.1,0-0.4-0.2-0.4-0.5c0-0.2,0-0.4,0.1-0.7l0.2-1.4c-3.7,2.4-4.2,2.6-4.5,2.6     c-0.6,0-0.8-1.3-0.8-1.7c0-0.2,0.1-0.5,0.2-1l1.3-4.9c0.1-0.4,0.1-0.6,0.1-0.7c0-0.2-0.1-0.4-0.4-0.4c-0.2,0-0.9,0.2-1.7,0.6     l0.1-0.7c2.9-1.8,3.5-2,3.7-2c0.2,0,0.4,0.1,0.4,0.4c0,0.3-0.1,0.8-0.9,3.9c-0.7,2.6-0.9,3.2-0.9,3.7c0,0.6,0.1,0.9,0.5,0.9     s2.1-1,2.9-1.7l1.8-6.3L259.9,32.3z"></path>
			<path fill="#38869D" d="M267.5,34.6l-0.3-0.4c-0.4-0.5-0.9-0.7-1.4-0.7c-0.7,0-1.6,0.6-1.6,1.6c0,0.4,0.2,0.8,0.8,1.3l1.6,1.1     c0.5,0.3,0.7,0.9,0.7,1.4c0,0.4-0.1,1-0.4,1.4c-0.6,1-1.6,2-2.8,2.5c-0.5,0.2-1.3,0.4-1.9,0.4c-1.1,0-1.6-0.5-1.9-1.4l-0.2-0.9     l1.6-1.1l0.2,0.9c0.2,1,0.7,1.5,1.6,1.5c1.4,0,2.2-1.1,2.2-2.1c0-0.3-0.3-0.9-0.9-1.3l-0.8-0.5c-0.9-0.6-1.2-1.2-1.2-1.9     c0-0.5,0.1-1,0.4-1.5c0.2-0.5,1.2-1.5,1.8-1.9c0.6-0.4,1.3-0.6,2-0.6c0.9,0,1.5,0.3,1.9,0.8L267.5,34.6z"></path>
		</g>
	</g>
</g>
</svg>
